<mxfile host="www.draw.io" modified="2020-01-09T00:50:51.192Z" agent="Mozilla/5.0 (Windows NT 6.1; Win64; x64) AppleWebKit/537.36 (KHTML, like Gecko) Chrome/78.0.3904.87 Safari/537.36" etag="mBtY5jBHPeADtQHXp-Gg" version="12.4.9" type="github">
  <diagram id="6I6xac8LYPNRdGNH9G0V" name="Page-1">
    <mxGraphModel dx="1855" dy="626" grid="1" gridSize="10" guides="1" tooltips="1" connect="1" arrows="1" fold="1" page="1" pageScale="1" pageWidth="827" pageHeight="1169" math="0" shadow="0">
      <root>
        <mxCell id="0"/>
        <mxCell id="1" parent="0"/>
        <mxCell id="7wYDEa6Z_keR5qtmBXL8-1" value="apache&lt;br&gt;port 80" style="rounded=1;whiteSpace=wrap;html=1;" parent="1" vertex="1">
          <mxGeometry x="20" y="21" width="120" height="60" as="geometry"/>
        </mxCell>
        <mxCell id="7wYDEa6Z_keR5qtmBXL8-2" value="gunicorn port 5011&lt;br&gt;" style="rounded=1;whiteSpace=wrap;html=1;" parent="1" vertex="1">
          <mxGeometry x="20" y="220" width="120" height="60" as="geometry"/>
        </mxCell>
        <mxCell id="7wYDEa6Z_keR5qtmBXL8-3" value="" style="endArrow=classic;html=1;" parent="1" edge="1">
          <mxGeometry width="50" height="50" relative="1" as="geometry">
            <mxPoint x="80" y="90" as="sourcePoint"/>
            <mxPoint x="79.5" y="200" as="targetPoint"/>
          </mxGeometry>
        </mxCell>
        <mxCell id="2WvPanqCT4wS21xxcVQg-2" value="reverse proxy to WSGI server" style="text;html=1;align=center;verticalAlign=middle;resizable=0;points=[];labelBackgroundColor=#ffffff;" parent="7wYDEa6Z_keR5qtmBXL8-3" vertex="1" connectable="0">
          <mxGeometry x="-0.1996" y="-5" relative="1" as="geometry">
            <mxPoint as="offset"/>
          </mxGeometry>
        </mxCell>
        <mxCell id="7wYDEa6Z_keR5qtmBXL8-4" value="circusd&lt;br&gt;monitors these processes&lt;br&gt;" style="rounded=1;whiteSpace=wrap;html=1;" parent="1" vertex="1">
          <mxGeometry x="520" y="71" width="120" height="60" as="geometry"/>
        </mxCell>
        <mxCell id="7wYDEa6Z_keR5qtmBXL8-5" value="" style="endArrow=classic;html=1;" parent="1" edge="1">
          <mxGeometry width="50" height="50" relative="1" as="geometry">
            <mxPoint x="540" y="140" as="sourcePoint"/>
            <mxPoint x="130" y="210" as="targetPoint"/>
          </mxGeometry>
        </mxCell>
        <mxCell id="7wYDEa6Z_keR5qtmBXL8-6" value="rq-worker&lt;br&gt;" style="rounded=1;whiteSpace=wrap;html=1;" parent="1" vertex="1">
          <mxGeometry x="190" y="220" width="120" height="60" as="geometry"/>
        </mxCell>
        <mxCell id="7wYDEa6Z_keR5qtmBXL8-7" value="rh-worker2" style="rounded=1;whiteSpace=wrap;html=1;" parent="1" vertex="1">
          <mxGeometry x="359" y="220" width="120" height="60" as="geometry"/>
        </mxCell>
        <mxCell id="7wYDEa6Z_keR5qtmBXL8-8" value="" style="rounded=1;whiteSpace=wrap;html=1;" parent="1" vertex="1">
          <mxGeometry x="520" y="220" width="150" height="60" as="geometry"/>
        </mxCell>
        <mxCell id="7wYDEa6Z_keR5qtmBXL8-9" value="process_ec2_events.py" style="text;html=1;" parent="1" vertex="1">
          <mxGeometry x="530" y="235" width="150" height="30" as="geometry"/>
        </mxCell>
        <mxCell id="7wYDEa6Z_keR5qtmBXL8-11" value="" style="endArrow=classic;html=1;" parent="1" edge="1">
          <mxGeometry width="50" height="50" relative="1" as="geometry">
            <mxPoint x="560" y="140" as="sourcePoint"/>
            <mxPoint x="260" y="210" as="targetPoint"/>
          </mxGeometry>
        </mxCell>
        <mxCell id="7wYDEa6Z_keR5qtmBXL8-12" value="" style="endArrow=classic;html=1;" parent="1" edge="1">
          <mxGeometry width="50" height="50" relative="1" as="geometry">
            <mxPoint x="570" y="140" as="sourcePoint"/>
            <mxPoint x="450" y="210" as="targetPoint"/>
          </mxGeometry>
        </mxCell>
        <mxCell id="7wYDEa6Z_keR5qtmBXL8-13" value="" style="endArrow=classic;html=1;" parent="1" edge="1">
          <mxGeometry width="50" height="50" relative="1" as="geometry">
            <mxPoint x="590" y="140" as="sourcePoint"/>
            <mxPoint x="590" y="210" as="targetPoint"/>
          </mxGeometry>
        </mxCell>
        <mxCell id="7wYDEa6Z_keR5qtmBXL8-14" value="redis&lt;br&gt;background jobs" style="shape=cylinder;whiteSpace=wrap;html=1;boundedLbl=1;backgroundOutline=1;" parent="1" vertex="1">
          <mxGeometry x="230" y="80" width="60" height="80" as="geometry"/>
        </mxCell>
        <mxCell id="7wYDEa6Z_keR5qtmBXL8-15" value="" style="endArrow=classic;startArrow=classic;html=1;" parent="1" edge="1">
          <mxGeometry width="50" height="50" relative="1" as="geometry">
            <mxPoint x="250" y="210" as="sourcePoint"/>
            <mxPoint x="250" y="170" as="targetPoint"/>
          </mxGeometry>
        </mxCell>
        <mxCell id="7wYDEa6Z_keR5qtmBXL8-16" value="" style="endArrow=classic;startArrow=classic;html=1;entryX=0.35;entryY=-0.15;entryDx=0;entryDy=0;entryPerimeter=0;" parent="1" target="7wYDEa6Z_keR5qtmBXL8-7" edge="1">
          <mxGeometry width="50" height="50" relative="1" as="geometry">
            <mxPoint x="290" y="170" as="sourcePoint"/>
            <mxPoint x="340" y="120" as="targetPoint"/>
          </mxGeometry>
        </mxCell>
        <mxCell id="2WvPanqCT4wS21xxcVQg-3" value="" style="endArrow=classic;startArrow=classic;html=1;" parent="1" edge="1">
          <mxGeometry width="50" height="50" relative="1" as="geometry">
            <mxPoint x="110" y="210" as="sourcePoint"/>
            <mxPoint x="210" y="160" as="targetPoint"/>
          </mxGeometry>
        </mxCell>
        <mxCell id="2WvPanqCT4wS21xxcVQg-4" value="&lt;pre style=&quot;font-family: monospace, courier; padding: 1em; border: 1px solid rgb(221, 221, 221); background-color: rgb(249, 249, 249); line-height: 1.3em; font-size: 10px;&quot;&gt;aws-pl-notify-run-instances-NonProd000&lt;br style=&quot;font-size: 10px;&quot;&gt;aws-pl-notify-run-instances-Prod000&lt;br style=&quot;font-size: 10px;&quot;&gt;aws-pl-notify-start-instances-NonProd000&lt;br style=&quot;font-size: 10px;&quot;&gt;aws-pl-notify-start-instances-Prod000&lt;br style=&quot;font-size: 10px;&quot;&gt;aws-pl-notify-stop-instances-NonProd000&lt;br style=&quot;font-size: 10px;&quot;&gt;aws-pl-notify-stop-instances-Prod000&lt;/pre&gt;&lt;pre style=&quot;font-family: monospace, courier; padding: 1em; border: 1px solid rgb(221, 221, 221); background-color: rgb(249, 249, 249); line-height: 1.3em; font-size: 10px;&quot;&gt;aws-pl-notify-terminate-instances-NonProd000&lt;br style=&quot;font-size: 10px;&quot;&gt;aws-pl-notify-terminate-instances-Prod000&lt;/pre&gt;" style="text;html=1;align=center;verticalAlign=middle;resizable=0;points=[];autosize=1;fontSize=10;" parent="1" vertex="1">
          <mxGeometry x="520" y="321" width="280" height="180" as="geometry"/>
        </mxCell>
        <mxCell id="2WvPanqCT4wS21xxcVQg-5" value="event api&lt;br&gt;" style="text;html=1;align=center;verticalAlign=middle;resizable=0;points=[];autosize=1;" parent="1" vertex="1">
          <mxGeometry x="223" y="301" width="60" height="20" as="geometry"/>
        </mxCell>
        <mxCell id="2WvPanqCT4wS21xxcVQg-6" value="event api ah-portal&lt;br&gt;" style="text;html=1;align=center;verticalAlign=middle;resizable=0;points=[];autosize=1;" parent="1" vertex="1">
          <mxGeometry x="356" y="304" width="110" height="20" as="geometry"/>
        </mxCell>
        <mxCell id="KqsyyMvF4YfD29Q2Gl0U-1" value="workers" style="rounded=1;whiteSpace=wrap;html=1;" vertex="1" parent="1">
          <mxGeometry x="10" y="304" width="50" height="30" as="geometry"/>
        </mxCell>
        <mxCell id="KqsyyMvF4YfD29Q2Gl0U-4" value="workers" style="rounded=1;whiteSpace=wrap;html=1;" vertex="1" parent="1">
          <mxGeometry x="40" y="324" width="50" height="30" as="geometry"/>
        </mxCell>
        <mxCell id="KqsyyMvF4YfD29Q2Gl0U-3" value="" style="endArrow=classic;html=1;" edge="1" parent="1">
          <mxGeometry width="50" height="50" relative="1" as="geometry">
            <mxPoint x="80" y="283" as="sourcePoint"/>
            <mxPoint x="80" y="310" as="targetPoint"/>
          </mxGeometry>
        </mxCell>
        <mxCell id="KqsyyMvF4YfD29Q2Gl0U-6" value="workers" style="rounded=1;whiteSpace=wrap;html=1;" vertex="1" parent="1">
          <mxGeometry x="55" y="330" width="50" height="34" as="geometry"/>
        </mxCell>
        <mxCell id="KqsyyMvF4YfD29Q2Gl0U-7" style="edgeStyle=orthogonalEdgeStyle;rounded=0;orthogonalLoop=1;jettySize=auto;html=1;exitX=0.25;exitY=0;exitDx=0;exitDy=0;entryX=0;entryY=0;entryDx=0;entryDy=0;" edge="1" parent="1" source="KqsyyMvF4YfD29Q2Gl0U-4" target="KqsyyMvF4YfD29Q2Gl0U-4">
          <mxGeometry relative="1" as="geometry"/>
        </mxCell>
        <mxCell id="KqsyyMvF4YfD29Q2Gl0U-8" value="workers" style="rounded=1;whiteSpace=wrap;html=1;" vertex="1" parent="1">
          <mxGeometry x="30" y="324" width="50" height="30" as="geometry"/>
        </mxCell>
        <mxCell id="KqsyyMvF4YfD29Q2Gl0U-9" value="workers" style="rounded=1;whiteSpace=wrap;html=1;" vertex="1" parent="1">
          <mxGeometry x="40" y="334" width="50" height="30" as="geometry"/>
        </mxCell>
        <mxCell id="KqsyyMvF4YfD29Q2Gl0U-10" value="workers" style="rounded=1;whiteSpace=wrap;html=1;" vertex="1" parent="1">
          <mxGeometry x="50" y="344" width="50" height="30" as="geometry"/>
        </mxCell>
        <mxCell id="KqsyyMvF4YfD29Q2Gl0U-11" value="workers" style="rounded=1;whiteSpace=wrap;html=1;" vertex="1" parent="1">
          <mxGeometry x="60" y="354" width="50" height="30" as="geometry"/>
        </mxCell>
        <mxCell id="KqsyyMvF4YfD29Q2Gl0U-12" value="workers" style="rounded=1;whiteSpace=wrap;html=1;" vertex="1" parent="1">
          <mxGeometry x="70" y="364" width="50" height="30" as="geometry"/>
        </mxCell>
        <mxCell id="KqsyyMvF4YfD29Q2Gl0U-13" value="workers" style="rounded=1;whiteSpace=wrap;html=1;direction=south;" vertex="1" parent="1">
          <mxGeometry x="90" y="364" width="30" height="50" as="geometry"/>
        </mxCell>
        <mxCell id="KqsyyMvF4YfD29Q2Gl0U-14" value="Process the following &lt;br&gt;AWS SQS queues" style="text;html=1;align=center;verticalAlign=middle;resizable=0;points=[];autosize=1;fontSize=10;" vertex="1" parent="1">
          <mxGeometry x="550" y="291" width="110" height="30" as="geometry"/>
        </mxCell>
      </root>
    </mxGraphModel>
  </diagram>
</mxfile>
